HIERARCHY
ROOT hip
{
  OFFSET 0 0 0
  CHANNELS 6 Xposition Yposition Zposition Zrotation Yrotation Xrotation
  JOINT abdomen
  {
    OFFSET 0 20.6881 -0.73152
    CHANNELS 3 Zrotation Xrotation Yrotation
    JOINT chest
    {
      OFFSET 0 11.7043 -0.48768
      CHANNELS 3 Zrotation Xrotation Yrotation
      JOINT neck
      {
        OFFSET 0 22.1894 -2.19456
        CHANNELS 3 Zrotation Xrotation Yrotation
        JOINT head
        {
          OFFSET -0.24384 7.07133 1.2192
          CHANNELS 3 Zrotation Xrotation Yrotation
          JOINT leftEye
          {
            OFFSET 4.14528 8.04674 8.04672
            CHANNELS 3 Zrotation Xrotation Yrotation
            End Site
            {
              OFFSET 1 0 0
            }
          }
          JOINT rightEye
          {
            OFFSET -3.6576 8.04674 8.04672
            CHANNELS 3 Zrotation Xrotation Yrotation
            End Site
            {
              OFFSET 1 0 0
            }
          }
        }
      }
      JOINT rCollar
      {
        OFFSET -2.68224 19.2634 -4.8768
        CHANNELS 3 Zrotation Xrotation Yrotation
        JOINT rShldr
        {
          OFFSET -8.77824 -1.95073 1.46304
          CHANNELS 3 Zrotation Xrotation Yrotation
          JOINT rForeArm
          {
            OFFSET -28.1742 -1.7115 0.48768
            CHANNELS 3 Zrotation Xrotation Yrotation
            JOINT rHand
            {
              OFFSET -22.5879 0.773209 7.07136
              CHANNELS 3 Zrotation Xrotation Yrotation
              JOINT rThumb1
              {
                OFFSET -1.2192 -0.487915 3.41376
                CHANNELS 3 Zrotation Xrotation Yrotation
                JOINT rThumb2
                {
                  OFFSET -3.37035 -0.52449 3.41376
                  CHANNELS 3 Zrotation Xrotation Yrotation
                  End Site
                  {
                    OFFSET -1.78271 -1.18214 1.43049
                  }
                }
              }
              JOINT rIndex1
              {
                OFFSET -7.75947 0.938293 5.60832
                CHANNELS 3 Zrotation Xrotation Yrotation
                JOINT rIndex2
                {
                  OFFSET -2.54057 -0.884171 1.56538
                  CHANNELS 3 Zrotation Xrotation Yrotation
                  End Site
                  {
                    OFFSET -1.62519 -0.234802 1.16502
                  }
                }
              }
              JOINT rMid1
              {
                OFFSET -8.24714 1.18213 3.41376
                CHANNELS 3 Zrotation Xrotation Yrotation
                JOINT rMid2
                {
                  OFFSET -3.10165 -0.590103 1.0647
                  CHANNELS 3 Zrotation Xrotation Yrotation
                  End Site
                  {
                    OFFSET -2.48547 -0.328903 0.83742
                  }
                }
              }
              JOINT rRing1
              {
                OFFSET -8.82822 0.546677 1.51678
                CHANNELS 3 Zrotation Xrotation Yrotation
                JOINT rRing2
                {
                  OFFSET -2.60934 -0.819778 -0.0198488
                  CHANNELS 3 Zrotation Xrotation Yrotation
                  End Site
                  {
                    OFFSET -2.33842 -0.294052 0.168128
                  }
                }
              }
              JOINT rPinky1
              {
                OFFSET -8.27202 -0.0477905 -0.4584
                CHANNELS 3 Zrotation Xrotation Yrotation
                JOINT rPinky2
                {
                  OFFSET -1.82734 -0.647385 -0.700984
                  CHANNELS 3 Zrotation Xrotation Yrotation
                  End Site
                  {
                    OFFSET -1.69225 -0.51767 -0.607171
                  }
                }
              }
            }
          }
        }
      }
      JOINT lCollar
      {
        OFFSET 2.68224 19.2634 -4.8768
        CHANNELS 3 Zrotation Xrotation Yrotation
        JOINT lShldr
        {
          OFFSET 8.77824 -1.95073 1.46304
          CHANNELS 3 Zrotation Xrotation Yrotation
          JOINT lForeArm
          {
            OFFSET 28.1742 -1.7115 0.48768
            CHANNELS 3 Zrotation Xrotation Yrotation
            JOINT lHand
            {
              OFFSET 22.5879 0.773209 7.07136
              CHANNELS 3 Zrotation Xrotation Yrotation
              JOINT lThumb1
              {
                OFFSET 1.2192 -0.487915 3.41376
                CHANNELS 3 Zrotation Xrotation Yrotation
                JOINT lThumb2
                {
                  OFFSET 3.37035 -0.52449 3.41376
                  CHANNELS 3 Zrotation Xrotation Yrotation
                  End Site
                  {
                    OFFSET 1.78271 -1.18214 1.43049
                  }
                }
              }
              JOINT lIndex1
              {
                OFFSET 7.75947 0.938293 5.60832
                CHANNELS 3 Zrotation Xrotation Yrotation
                JOINT lIndex2
                {
                  OFFSET 2.54057 -0.884171 1.56538
                  CHANNELS 3 Zrotation Xrotation Yrotation
                  End Site
                  {
                    OFFSET 1.62519 -0.234802 1.16502
                  }
                }
              }
              JOINT lMid1
              {
                OFFSET 8.24714 1.18213 3.41376
                CHANNELS 3 Zrotation Xrotation Yrotation
                JOINT lMid2
                {
                  OFFSET 3.10165 -0.590103 1.0647
                  CHANNELS 3 Zrotation Xrotation Yrotation
                  End Site
                  {
                    OFFSET 2.48547 -0.328903 0.83742
                  }
                }
              }
              JOINT lRing1
              {
                OFFSET 8.82822 0.546677 1.51678
                CHANNELS 3 Zrotation Xrotation Yrotation
                JOINT lRing2
                {
                  OFFSET 2.60934 -0.819778 -0.0198488
                  CHANNELS 3 Zrotation Xrotation Yrotation
                  End Site
                  {
                    OFFSET 2.33842 -0.294052 0.168128
                  }
                }
              }
              JOINT lPinky1
              {
                OFFSET 8.27202 -0.0477905 -0.4584
                CHANNELS 3 Zrotation Xrotation Yrotation
                JOINT lPinky2
                {
                  OFFSET 1.82734 -0.647385 -0.700984
                  CHANNELS 3 Zrotation Xrotation Yrotation
                  End Site
                  {
                    OFFSET 1.69225 -0.51767 -0.607171
                  }
                }
              }
            }
          }
        }
      }
    }
  }
  JOINT rButtock
  {
    OFFSET -8.77824 4.35084 1.2192
    CHANNELS 3 Zrotation Xrotation Yrotation
    JOINT rThigh
    {
      OFFSET 0 -1.70687 -2.19456
      CHANNELS 3 Zrotation Xrotation Yrotation
      JOINT rShin
      {
        OFFSET 0 -36.8199 0.73152
        CHANNELS 3 Zrotation Xrotation Yrotation
        JOINT rFoot
        {
          OFFSET 0.73152 -45.1104 -5.12064
          CHANNELS 3 Zrotation Xrotation Yrotation
          End Site
          {
            OFFSET -1.1221 -3.69964 12.103
          }
        }
      }
    }
  }
  JOINT lButtock
  {
    OFFSET 8.77824 4.35084 1.2192
    CHANNELS 3 Zrotation Xrotation Yrotation
    JOINT lThigh
    {
      OFFSET 0 -1.70687 -2.19456
      CHANNELS 3 Zrotation Xrotation Yrotation
      JOINT lShin
      {
        OFFSET 0 -36.8199 0.73152
        CHANNELS 3 Zrotation Xrotation Yrotation
        JOINT lFoot
        {
          OFFSET -0.73152 -45.1104 -5.12064
          CHANNELS 3 Zrotation Xrotation Yrotation
          End Site
          {
            OFFSET 1.1221 -3.69964 12.103
          }
        }
      }
    }
  }
}
MOTION
Frames:	9
Frame Time:	0.00833333
52.1478 85.1388 189.61 0.0 0.0 0.0 0.41059 -0.00336424 0.0117806 0.113459 -0.00539519 0.0196593 2.31274e-15 -1.59028e-15 1.05604e-16 7.00716e-15 3.18055e-15 3.32343e-16 -0.0 0.0 0.0 -0.0 0.0 0.0 1.19139e-15 -5.82377e-18 1.98785e-16 2.74172e-14 -3.16813e-16 1.98785e-15 4.23958e-13 -1.32788e-13 1.59028e-14 4.81495e-12 9.18882e-14 2.09917e-13 1.13613e-11 -8.37098e-14 5.12069e-13 1.96185e-11 -1.43125e-13 8.80219e-13 1.13677e-11 -8.0309e-14 5.02528e-13 7.73091 5.47488 0.417314 1.13635e-11 -8.3092e-14 5.12069e-13 2.90554 0.965183 0.102902 1.13702e-11 -8.29926e-14 5.12864e-13 10.2786 0.731801 0.0259123 1.13584e-11 -8.42847e-14 5.1843e-13 2.22167 -0.733487 -0.20892 1.1941e-15 -5.43552e-18 -9.93923e-17 2.18978e-14 -2.29845e-16 3.97569e-16 4.17845e-13 1.22451e-13 9.54166e-15 4.81789e-12 -1.53636e-13 2.3218e-13 1.13592e-11 -6.675e-14 5.1843e-13 1.96292e-11 -1.145e-13 9.02482e-13 1.1353e-11 -6.32135e-14 5.24792e-13 -7.73091 5.47488 -0.417314 1.13587e-11 -6.57977e-14 5.1525e-13 -2.90554 0.965183 -0.102902 1.13516e-11 -6.62947e-14 5.1525e-13 -10.2786 0.731801 -0.0259123 1.13542e-11 -6.75868e-14 5.08889e-13 -2.22167 -0.733487 0.20892 -2.03217e-16 0.0 -3.88251e-19 0.770611 -4.17183 -0.0656818 -0.00265491 2.00555 -0.0182707 -0.461836 2.16687 0.0961017 2.03217e-16 0.0 3.88251e-19 -0.143229 -2.55995 0.0260683 0.00716316 -0.91409 0.0621715 0.453767 3.47457 -0.121224
52.5177 83.5583 184.094 178.464 -1.0189 -152.745 -1.51897 -8.57877 -0.571458 0.876988 3.49709 -0.249591 0.368514 2.58731 -0.770941 0.820804 -8.99352 -1.43902 -0.0 0.0 0.0 -0.0 0.0 0.0 9.89844e-15 -8.47231e-14 -9.39568e-16 23.5537 2.09659 -0.975817 -4.38146 -2.024 6.80704 -2.13589e-06 0.000393786 5.53472e-05 5.16053e-13 -5.02489e-10 8.65091e-10 2.41864e-12 -8.68618e-10 1.49644e-09 5.21149e-13 -5.02485e-10 8.65083e-10 7.73091 5.47488 0.417314 5.17416e-13 -5.02488e-10 8.65092e-10 2.90554 0.965183 0.102902 5.23806e-13 -5.02488e-10 8.65091e-10 10.2786 0.731801 0.0259123 5.1222e-13 -5.0249e-10 8.65099e-10 2.22167 -0.733487 -0.20892 9.93952e-15 -8.47238e-14 -1.18223e-15 -21.2506 4.61254 -0.620255 2.83089 -1.09596 -4.60681 -0.00761863 1.93673 -0.271628 3.37743e-10 -4.50067e-10 -1.13101e-09 5.76533e-10 -7.8134e-10 -1.95704e-09 3.37738e-10 -4.50065e-10 -1.131e-09 -7.73091 5.47488 -0.417314 3.37743e-10 -4.50066e-10 -1.13101e-09 -2.90554 0.965183 -0.102902 3.37737e-10 -4.50067e-10 -1.13101e-09 -10.2786 0.731801 -0.0259123 3.3774e-10 -4.50068e-10 -1.13102e-09 -2.22167 -0.733487 0.20892 -2.03217e-16 0.0 -3.88251e-19 0.174082 -11.0155 1.71325 0.00350924 3.65245 0.045937 -0.719179 -4.35694 -2.43826 2.03217e-16 0.0 3.88251e-19 0.145083 -9.31724 -2.68183 0.00629932 1.02085 0.026902 0.483619 1.32543 0.587655
52.5298 83.5605 184.141 178.516 -0.9643 -152.527 -3.75441 -17.6419 -1.23131 1.7199 7.20028 -0.537215 0.833588 5.32187 -1.59089 1.17169 -18.4824 -3.08271 -0.0 0.0 0.0 -0.0 0.0 0.0 2.01133e-14 -1.75031e-13 -1.55301e-15 48.5309 4.31413 -2.01245 -8.49537 -4.06918 14.0318 -5.8321e-06 -0.00292748 -0.00041142 -1.28139e-11 -1.06156e-09 1.82949e-09 -1.88651e-11 -1.8351e-09 3.16471e-09 -1.28103e-11 -1.06156e-09 1.82948e-09 7.73091 5.47488 0.417314 -1.28134e-11 -1.06156e-09 1.82949e-09 2.90554 0.965183 0.102902 -1.28074e-11 -1.06156e-09 1.82949e-09 10.2786 0.731801 0.0259123 -1.28188e-11 -1.06157e-09 1.8295e-09 2.22167 -0.733487 -0.20892 2.01978e-14 -1.75033e-13 -1.73626e-15 -43.6062 9.48543 -1.29071 5.63245 -2.23086 -9.48201 0.00435038 3.9885 -0.560446 6.85743e-10 -9.61387e-10 -2.39578e-09 1.16994e-09 -1.669e-09 -4.14551e-09 6.85738e-10 -9.61387e-10 -2.39577e-09 -7.73091 5.47488 -0.417314 6.85744e-10 -9.61386e-10 -2.39578e-09 -2.90554 0.965183 -0.102902 6.85737e-10 -9.61387e-10 -2.39578e-09 -10.2786 0.731801 -0.0259123 6.85742e-10 -9.61387e-10 -2.39579e-09 -2.22167 -0.733487 0.20892 -2.03217e-16 0.0 -3.88251e-19 0.0302158 -18.228 3.71401 0.00610003 5.39858 0.114717 -1.63464 -11.3006 -5.20143 2.03217e-16 0.0 3.88251e-19 -0.26993 -16.3988 -5.7055 0.00801185 3.06132 -0.0103014 0.572964 -0.945022 1.3376
52.5433 83.5404 184.168 178.577 -0.9439 -152.404 -5.95049 -25.7184 -1.9078 2.50421 10.5012 -0.800099 1.316 7.75628 -2.33181 0.968872 -26.9082 -4.78283 -0.0 0.0 0.0 -0.0 0.0 0.0 2.73126e-14 -2.54158e-13 -3.21627e-15 70.8764 6.28246 -2.94318 -11.7295 -5.7299 20.5154 -6.40997e-06 0.00118136 0.000166042 -2.11744e-11 -1.5073e-09 2.59425e-09 -3.1981e-11 -2.60557e-09 4.48756e-09 -2.1172e-11 -1.50729e-09 2.59424e-09 7.73091 5.47488 0.417314 -2.11748e-11 -1.5073e-09 2.59425e-09 2.90554 0.965183 0.102902 -2.1169e-11 -1.5073e-09 2.59425e-09 10.2786 0.731801 0.0259123 -2.11801e-11 -1.5073e-09 2.59426e-09 2.22167 -0.733487 -0.20892 2.74304e-14 -2.54161e-13 -3.34789e-15 -63.4446 13.831 -1.91014 7.96896 -3.20298 -13.8399 0.0324742 5.80966 -0.818623 9.90511e-10 -1.35007e-09 -3.39406e-09 1.69034e-09 -2.34379e-09 -5.87293e-09 9.90507e-10 -1.35007e-09 -3.39405e-09 -7.73091 5.47488 -0.417314 9.90513e-10 -1.35007e-09 -3.39406e-09 -2.90554 0.965183 -0.102902 9.90506e-10 -1.35007e-09 -3.39406e-09 -10.2786 0.731801 -0.0259123 9.90511e-10 -1.35007e-09 -3.39407e-09 -2.22167 -0.733487 0.20892 -2.03217e-16 0.0 -3.88251e-19 0.367099 -24.6097 5.69481 0.00469055 6.94623 0.175337 -3.02535 -17.2633 -7.84101 2.03217e-16 0.0 3.88251e-19 -1.32713 -22.6275 -8.6627 0.0117268 4.89073 -0.0437932 0.702868 -2.97084 2.00719
52.5528 83.5288 184.188 178.621 -0.9601 -152.312 -7.63131 -31.339 -2.46679 3.07097 12.7971 -0.989664 1.69266 9.44566 -2.85707 0.478959 -32.7444 -6.18582 -0.0 0.0 0.0 -0.0 0.0 0.0 2.69729e-14 -3.05331e-13 -7.50412e-15 86.4897 7.6348 -3.59402 -13.752 -6.75601 25.0563 -6.9885e-07 0.0238655 0.00335407 -1.71112e-11 -1.66968e-09 2.85993e-09 -2.46771e-11 -2.88599e-09 4.94683e-09 -1.71094e-11 -1.66967e-09 2.85993e-09 7.73091 5.47488 0.417314 -1.71124e-11 -1.66968e-09 2.85994e-09 2.90554 0.965183 0.102902 -1.71064e-11 -1.66968e-09 2.85993e-09 10.2786 0.731801 0.0259123 -1.7117e-11 -1.66968e-09 2.85994e-09 2.22167 -0.733487 -0.20892 2.70984e-14 -3.05334e-13 -7.60351e-15 -77.2104 16.8648 -2.35492 9.51014 -3.84899 -16.8861 0.0614335 7.05481 -0.99658 1.1872e-09 -1.43215e-09 -3.72612e-09 2.02822e-09 -2.48644e-09 -6.44774e-09 1.1872e-09 -1.43216e-09 -3.72611e-09 -7.73091 5.47488 -0.417314 1.1872e-09 -1.43215e-09 -3.72612e-09 -2.90554 0.965183 -0.102902 1.1872e-09 -1.43215e-09 -3.72612e-09 -10.2786 0.731801 -0.0259123 1.1872e-09 -1.43215e-09 -3.72613e-09 -2.22167 -0.733487 0.20892 -2.03217e-16 0.0 -3.88251e-19 0.891996 -28.9999 7.24426 0.00139194 7.99774 0.214675 -4.27525 -20.9157 -9.81432 2.03217e-16 0.0 3.88251e-19 -2.50131 -26.9143 -10.9381 0.0154573 6.19246 -0.0677828 0.821432 -4.38749 2.47173
52.563 83.5168 184.199 178.671 -0.9766 -152.261 -8.36484 -33.5272 -2.72822 3.30028 13.6849 -1.06775 1.86013 10.0739 -3.06562 0.197046 -34.9762 -6.80399 -0.0 0.0 0.0 -0.0 0.0 0.0 9.82523e-15 -3.30303e-13 -1.79531e-14 92.6126 8.12257 -3.84187 -14.4871 -7.11664 26.8226 2.25913e-06 0.0731027 0.0102739 6.70404e-11 -1.44298e-09 2.43291e-09 1.19482e-10 -2.49335e-09 4.20717e-09 6.70424e-11 -1.44297e-09 2.4329e-09 7.73091 5.47488 0.417314 6.70384e-11 -1.44297e-09 2.43291e-09 2.90554 0.965183 0.102902 6.70451e-11 -1.44298e-09 2.4329e-09 10.2786 0.731801 0.0259123 6.70357e-11 -1.44298e-09 2.43292e-09 2.22167 -0.733487 -0.20892 9.91724e-15 -3.30307e-13 -1.80475e-14 -82.5743 18.0793 -2.52091 10.0968 -4.09477 -18.0853 0.0737154 7.48393 -1.05828 1.32915e-09 -1.03779e-09 -3.07315e-09 2.27782e-09 -1.80227e-09 -5.31882e-09 1.32915e-09 -1.03779e-09 -3.07313e-09 -7.73091 5.47488 -0.417314 1.32915e-09 -1.03779e-09 -3.07315e-09 -2.90554 0.965183 -0.102902 1.32915e-09 -1.03779e-09 -3.07315e-09 -10.2786 0.731801 -0.0259123 1.32915e-09 -1.03779e-09 -3.07316e-09 -2.22167 -0.733487 0.20892 -2.03217e-16 0.0 -3.88251e-19 1.14766 -30.6579 7.91198 -0.00106998 8.34554 0.222668 -4.65977 -21.307 -10.5801 2.03217e-16 0.0 3.88251e-19 -3.08709 -28.6277 -11.8926 0.0169986 6.76072 -0.0783728 0.875059 -4.95337 2.65136
52.5647 83.478 184.201 178.703 -0.9946 -152.261 -8.35409 -33.2666 -2.7317 3.28065 13.5672 -1.06377 1.862 9.94641 -3.04434 0.242273 -34.6537 -6.73746 -0.0 0.0 0.0 -0.0 0.0 0.0 -1.90303e-14 -3.35944e-13 -3.26845e-14 91.941 7.99451 -3.79896 -14.3915 -7.06546 26.5944 -1.33673e-05 0.14128 0.0198557 2.05412e-10 -9.37994e-10 1.5108e-09 3.5624e-10 -1.61933e-09 2.61065e-09 2.05415e-10 -9.37989e-10 1.5108e-09 7.73091 5.47488 0.417314 2.0541e-10 -9.37991e-10 1.5108e-09 2.90554 0.965183 0.102902 2.05418e-10 -9.37992e-10 1.5108e-09 10.2786 0.731801 0.0259123 2.0541e-10 -9.37995e-10 1.51082e-09 2.22167 -0.733487 -0.20892 -1.90009e-14 -3.35947e-13 -3.27933e-14 -81.9623 17.995 -2.47752 10.0373 -4.07079 -17.9619 0.0702377 7.33073 -1.03631 1.4274e-09 -3.05351e-10 -1.71907e-09 2.45638e-09 -5.3141e-10 -2.97723e-09 1.4274e-09 -3.05351e-10 -1.71906e-09 -7.73091 5.47488 -0.417314 1.4274e-09 -3.05351e-10 -1.71908e-09 -2.90554 0.965183 -0.102902 1.4274e-09 -3.05351e-10 -1.71908e-09 -10.2786 0.731801 -0.0259123 1.4274e-09 -3.0535e-10 -1.71908e-09 -2.22167 -0.733487 0.20892 -2.03217e-16 0.0 -3.88251e-19 1.07054 -30.3848 7.86322 -0.00225303 8.19114 0.208194 -4.29699 -19.4041 -10.4291 2.03217e-16 0.0 3.88251e-19 -3.05407 -28.5468 -11.7872 0.0164207 6.8048 -0.0793122 0.870597 -4.91217 2.62557
52.5513 83.4745 184.205 178.64 -0.9764 -152.243 -8.03472 -32.0307 -2.63183 3.16168 13.0502 -1.02789 1.78784 9.55155 -2.93441 0.432651 -33.3647 -6.39994 -0.0 0.0 0.0 -0.0 0.0 0.0 -4.25635e-14 -3.13159e-13 -4.51501e-14 88.5471 7.63143 -3.64081 -13.9642 -6.85017 25.5722 -5.14236e-05 0.216158 0.0303791 2.6516e-10 -3.09524e-10 3.81062e-10 4.56809e-10 -5.31962e-10 6.55265e-10 2.65164e-10 -3.0952e-10 3.81051e-10 7.73091 5.47488 0.417314 2.65157e-10 -3.09521e-10 3.8106e-10 2.90554 0.965183 0.102902 2.65166e-10 -3.09522e-10 3.81061e-10 10.2786 0.731801 0.0259123 2.65159e-10 -3.09525e-10 3.81074e-10 2.22167 -0.733487 -0.20892 -4.25998e-14 -3.13162e-13 -4.5281e-14 -78.9654 17.3707 -2.3504 9.71826 -3.93818 -17.307 0.0611406 6.96056 -0.983244 1.35366e-09 4.86773e-10 -1.68275e-10 2.33896e-09 8.43219e-10 -2.94694e-10 1.35366e-09 4.86773e-10 -1.68263e-10 -7.73091 5.47488 -0.417314 1.35366e-09 4.86772e-10 -1.68277e-10 -2.90554 0.965183 -0.102902 1.35366e-09 4.86772e-10 -1.68276e-10 -10.2786 0.731801 -0.0259123 1.35366e-09 4.86774e-10 -1.68279e-10 -2.22167 -0.733487 0.20892 -2.03217e-16 0.0 -3.88251e-19 0.867026 -29.3529 7.5256 -0.00296041 7.85043 0.186371 -3.71158 -16.7949 -9.95081 2.03217e-16 0.0 3.88251e-19 -2.76576 -27.7425 -11.2428 0.0149143 6.63083 -0.076194 0.84109 -4.62805 2.50653
52.5416 83.4727 184.215 178.592 -0.9508 -152.198 -7.84881 -31.2927 -2.58708 3.09344 12.7403 -1.01039 1.72727 9.37778 -2.87698 0.580555 -32.6961 -6.20852 -0.0 0.0 0.0 -0.0 0.0 0.0 -4.37443e-14 -2.52853e-13 -4.88016e-14 86.5023 7.41417 -3.54279 -13.7021 -6.71664 24.9567 -9.99698e-05 0.285494 0.0401239 1.1344e-10 2.87637e-10 -6.68883e-10 1.924e-10 5.00747e-10 -1.161e-09 1.13444e-10 2.87641e-10 -6.68896e-10 7.73091 5.47488 0.417314 1.13436e-10 2.8764e-10 -6.68887e-10 2.90554 0.965183 0.102902 1.13446e-10 2.87639e-10 -6.68884e-10 10.2786 0.731801 0.0259123 1.1344e-10 2.87637e-10 -6.68871e-10 2.22167 -0.733487 -0.20892 -4.38232e-14 -2.52856e-13 -4.89507e-14 -77.1745 16.9653 -2.26561 9.52409 -3.85716 -16.912 0.0560209 6.73876 -0.951506 9.79633e-10 1.06019e-09 1.07487e-09 1.7006e-09 1.83869e-09 1.85708e-09 9.79629e-10 1.06019e-09 1.07488e-09 -7.73091 5.47488 -0.417314 9.79635e-10 1.06019e-09 1.07487e-09 -2.90554 0.965183 -0.102902 9.79629e-10 1.06019e-09 1.07487e-09 -10.2786 0.731801 -0.0259123 9.79636e-10 1.0602e-09 1.07487e-09 -2.22167 -0.733487 0.20892 -2.03217e-16 0.0 -3.88251e-19 0.749489 -28.7329 7.32965 -0.00364085 7.63935 0.172258 -3.35804 -15.0758 -9.67731 2.03217e-16 0.0 3.88251e-19 -2.60039 -27.2829 -10.8896 0.0137747 6.54489 -0.0746267 0.820267 -4.46511 2.40651
